<svg width="91" height="91" viewBox="0 0 91 91" fill="none" xmlns="http://www.w3.org/2000/svg">
<g clip-path="url(#clip0_17_8858)">
<rect width="91" height="91" rx="21.3281" fill="#129575"/>
<rect x="54.1504" y="32.3911" width="6.95124" height="132.337" transform="rotate(45 54.1504 32.3911)" fill="#AFD3CA" fill-opacity="0.3"/>
<rect x="148.523" y="-61.9819" width="6.95124" height="132.337" transform="rotate(45 148.523 -61.9819)" fill="#AFD3CA" fill-opacity="0.3"/>
<rect x="77.7441" y="55.9844" width="6.95124" height="132.337" transform="rotate(45 77.7441 55.9844)" fill="#AFD3CA" fill-opacity="0.3"/>
<rect x="172.117" y="-38.3887" width="6.95124" height="132.337" transform="rotate(45 172.117 -38.3887)" fill="#AFD3CA" fill-opacity="0.3"/>
<rect x="50.8516" y="45.5205" width="6.95124" height="173.781" transform="rotate(135 50.8516 45.5205)" fill="#AFD3CA" fill-opacity="0.3"/>
<rect x="168.818" y="163.487" width="6.95124" height="173.781" transform="rotate(135 168.818 163.487)" fill="#AFD3CA" fill-opacity="0.3"/>
<rect x="101.336" y="79.5776" width="6.95124" height="132.337" transform="rotate(45 101.336 79.5776)" fill="#AFD3CA" fill-opacity="0.3"/>
<rect x="27.2578" y="69.1138" width="6.95124" height="173.781" transform="rotate(135 27.2578 69.1138)" fill="#AFD3CA" fill-opacity="0.3"/>
<rect x="145.225" y="187.08" width="6.95124" height="173.781" transform="rotate(135 145.225 187.08)" fill="#AFD3CA" fill-opacity="0.3"/>
<rect x="6.96289" y="-14.7954" width="6.95124" height="132.337" transform="rotate(45 6.96289 -14.7954)" fill="#AFD3CA" fill-opacity="0.3"/>
<rect x="3.66406" y="92.707" width="6.95124" height="173.781" transform="rotate(135 3.66406 92.707)" fill="#AFD3CA" fill-opacity="0.3"/>
<rect x="98.0371" y="-1.66553" width="6.95124" height="173.781" transform="rotate(135 98.0371 -1.66553)" fill="#AFD3CA" fill-opacity="0.3"/>
<rect x="121.631" y="210.673" width="6.95124" height="173.781" transform="rotate(135 121.631 210.673)" fill="#AFD3CA" fill-opacity="0.3"/>
<rect x="216.004" y="116.301" width="6.95124" height="173.781" transform="rotate(135 216.004 116.301)" fill="#AFD3CA" fill-opacity="0.3"/>
<rect x="30.5566" y="8.79785" width="6.95124" height="132.337" transform="rotate(45 30.5566 8.79785)" fill="#AFD3CA" fill-opacity="0.3"/>
<rect x="124.93" y="-85.5752" width="6.95124" height="132.337" transform="rotate(45 124.93 -85.5752)" fill="#AFD3CA" fill-opacity="0.3"/>
<rect x="74.4434" y="21.9277" width="6.95124" height="173.781" transform="rotate(135 74.4434 21.9277)" fill="#AFD3CA" fill-opacity="0.3"/>
<rect x="192.41" y="139.894" width="6.95124" height="173.781" transform="rotate(135 192.41 139.894)" fill="#AFD3CA" fill-opacity="0.3"/>
<rect x="13.4238" y="82.9487" width="2.18382" height="173.781" transform="rotate(135 13.4238 82.9487)" fill="#71B1A1"/>
<rect x="131.389" y="200.915" width="2.18382" height="173.781" transform="rotate(135 131.389 200.915)" fill="#71B1A1"/>
<rect x="20.4453" y="-1.31348" width="2.18382" height="132.337" transform="rotate(45 20.4453 -1.31348)" fill="#71B1A1"/>
<rect x="84.2031" y="12.1689" width="2.18382" height="173.781" transform="rotate(135 84.2031 12.1689)" fill="#71B1A1"/>
<rect x="202.17" y="130.135" width="2.18382" height="173.781" transform="rotate(135 202.17 130.135)" fill="#71B1A1"/>
<rect x="91.2246" y="69.4663" width="2.18382" height="132.337" transform="rotate(45 91.2246 69.4663)" fill="#71B1A1"/>
<rect x="37.0156" y="59.3555" width="2.18382" height="173.781" transform="rotate(135 37.0156 59.3555)" fill="#71B1A1"/>
<rect x="154.982" y="177.322" width="2.18382" height="173.781" transform="rotate(135 154.982 177.322)" fill="#71B1A1"/>
<rect x="67.6328" y="45.873" width="2.18382" height="132.337" transform="rotate(45 67.6328 45.873)" fill="#71B1A1"/>
<rect x="162.006" y="-48.4995" width="2.18382" height="132.337" transform="rotate(45 162.006 -48.4995)" fill="#71B1A1"/>
<rect x="44.0391" y="22.2798" width="2.18382" height="132.337" transform="rotate(45 44.0391 22.2798)" fill="#71B1A1"/>
<rect x="138.412" y="-72.0933" width="2.18382" height="132.337" transform="rotate(45 138.412 -72.0933)" fill="#71B1A1"/>
<rect x="60.6094" y="35.7622" width="2.18382" height="173.781" transform="rotate(135 60.6094 35.7622)" fill="#71B1A1"/>
<rect x="178.576" y="153.729" width="2.18382" height="173.781" transform="rotate(135 178.576 153.729)" fill="#71B1A1"/>
<rect x="45.9766" y="40.564" width="6.95124" height="7.00972" transform="rotate(45 45.9766 40.564)" fill="#71B1A1"/>
<rect x="22.3848" y="64.1572" width="6.95124" height="7.00972" transform="rotate(45 22.3848 64.1572)" fill="#71B1A1"/>
<rect x="-1.20898" y="87.7505" width="6.95124" height="7.00972" transform="rotate(45 -1.20898 87.7505)" fill="#003046"/>
<rect x="93.1641" y="-6.62256" width="6.95124" height="7.00972" transform="rotate(45 93.1641 -6.62256)" fill="#003046"/>
<rect x="69.5703" y="16.9707" width="6.95124" height="7.00972" transform="rotate(45 69.5703 16.9707)" fill="#71B1A1"/>
<rect x="69.5703" y="64.1572" width="6.95124" height="7.00972" transform="rotate(45 69.5703 64.1572)" fill="#71B1A1"/>
<rect x="45.9766" y="87.7505" width="6.95124" height="7.00972" transform="rotate(45 45.9766 87.7505)" fill="#71B1A1"/>
<rect x="93.1641" y="40.564" width="6.95124" height="7.00972" transform="rotate(45 93.1641 40.564)" fill="#71B1A1"/>
<rect x="93.1641" y="87.7505" width="6.95124" height="7.00972" transform="rotate(45 93.1641 87.7505)" fill="#003046"/>
<rect x="-1.20898" y="-6.62256" width="6.95124" height="7.00972" transform="rotate(45 -1.20898 -6.62256)" fill="#003046"/>
<rect x="22.3828" y="16.9702" width="6.95124" height="7.00972" transform="rotate(45 22.3828 16.9702)" fill="#71B1A1"/>
<rect x="-1.20898" y="40.564" width="6.95124" height="7.00972" transform="rotate(45 -1.20898 40.564)" fill="#71B1A1"/>
<rect x="45.9766" y="-6.62256" width="6.95124" height="7.00972" transform="rotate(45 45.9766 -6.62256)" fill="#71B1A1"/>
<path d="M57.6403 60.3426H45.8797H33.559V54.8046C29.7011 55.8417 21.898 55.1033 21.5496 43.8529C21.2011 32.6025 29.6181 30.6196 33.8702 31.0345C34.7206 28.0891 38.3131 22.1735 45.8797 22.074C53.4463 21.9744 56.4995 28.0062 57.0802 31.0345C58.4077 31.2419 61.4111 31.806 62.805 32.4034C70.5832 36.1369 69.8365 41.5505 68.9031 47.7731C68.1564 52.7511 61.0834 54.7838 57.6403 55.1779V60.3426Z" fill="white"/>
<path fill-rule="evenodd" clip-rule="evenodd" d="M31.6357 56.5867C24.8128 55.7359 19.5332 49.9156 19.5332 42.8623C19.5332 35.4687 25.3345 29.43 32.6334 29.0499C34.6805 23.9709 39.6552 20.3862 45.4671 20.3862C51.279 20.3862 56.2537 23.9709 58.3008 29.0499C65.5998 29.43 71.401 35.4687 71.401 42.8623C71.401 49.9156 66.1214 55.7359 59.2985 56.5867L59.2985 62.2281H31.6357L31.6357 56.5867ZM32.8133 32.503L35.016 32.3883L35.8406 30.3425C37.3784 26.527 41.1136 23.8441 45.4671 23.8441C49.8206 23.8441 53.5558 26.527 55.0936 30.3425L55.9182 32.3883L58.1209 32.503C63.5922 32.788 67.9432 37.3181 67.9432 42.8623C67.9432 48.1497 63.9843 52.5177 58.8706 53.1554L55.8407 53.5332V58.4226H35.0935V53.5332L32.0636 53.1554C26.9499 52.5177 22.9911 48.1497 22.9911 42.8623C22.9911 37.3181 27.342 32.788 32.8133 32.503Z" fill="white"/>
<path d="M31.6348 64.9116H59.3047V70.0984H31.6348V64.9116Z" fill="white"/>
<g clip-path="url(#clip1_17_8858)">
<rect width="91" height="91" rx="21.3281" fill="#27AE60"/>
<rect x="54.1504" y="32.3911" width="6.95124" height="132.337" transform="rotate(45 54.1504 32.3911)" fill="#71B1A1" fill-opacity="0.3"/>
<rect x="148.523" y="-61.9819" width="6.95124" height="132.337" transform="rotate(45 148.523 -61.9819)" fill="#71B1A1" fill-opacity="0.3"/>
<rect x="77.7441" y="55.9844" width="6.95124" height="132.337" transform="rotate(45 77.7441 55.9844)" fill="#71B1A1" fill-opacity="0.3"/>
<rect x="172.117" y="-38.3887" width="6.95124" height="132.337" transform="rotate(45 172.117 -38.3887)" fill="#71B1A1" fill-opacity="0.3"/>
<rect x="50.8516" y="45.5205" width="6.95124" height="173.781" transform="rotate(135 50.8516 45.5205)" fill="#71B1A1" fill-opacity="0.3"/>
<rect x="168.818" y="163.487" width="6.95124" height="173.781" transform="rotate(135 168.818 163.487)" fill="#71B1A1" fill-opacity="0.3"/>
<rect x="101.336" y="79.5776" width="6.95124" height="132.337" transform="rotate(45 101.336 79.5776)" fill="#71B1A1" fill-opacity="0.3"/>
<rect x="27.2578" y="69.1138" width="6.95124" height="173.781" transform="rotate(135 27.2578 69.1138)" fill="#71B1A1" fill-opacity="0.3"/>
<rect x="145.225" y="187.08" width="6.95124" height="173.781" transform="rotate(135 145.225 187.08)" fill="#71B1A1" fill-opacity="0.3"/>
<rect x="6.96289" y="-14.7954" width="6.95124" height="132.337" transform="rotate(45 6.96289 -14.7954)" fill="#71B1A1" fill-opacity="0.3"/>
<rect x="3.66406" y="92.707" width="6.95124" height="173.781" transform="rotate(135 3.66406 92.707)" fill="#71B1A1" fill-opacity="0.3"/>
<rect x="98.0371" y="-1.66553" width="6.95124" height="173.781" transform="rotate(135 98.0371 -1.66553)" fill="#71B1A1" fill-opacity="0.3"/>
<rect x="121.631" y="210.673" width="6.95124" height="173.781" transform="rotate(135 121.631 210.673)" fill="#71B1A1" fill-opacity="0.3"/>
<rect x="216.004" y="116.301" width="6.95124" height="173.781" transform="rotate(135 216.004 116.301)" fill="#71B1A1" fill-opacity="0.3"/>
<rect x="30.5566" y="8.79785" width="6.95124" height="132.337" transform="rotate(45 30.5566 8.79785)" fill="#71B1A1" fill-opacity="0.3"/>
<rect x="124.93" y="-85.5752" width="6.95124" height="132.337" transform="rotate(45 124.93 -85.5752)" fill="#71B1A1" fill-opacity="0.3"/>
<rect x="74.4434" y="21.9277" width="6.95124" height="173.781" transform="rotate(135 74.4434 21.9277)" fill="#71B1A1" fill-opacity="0.3"/>
<rect x="192.41" y="139.894" width="6.95124" height="173.781" transform="rotate(135 192.41 139.894)" fill="#71B1A1" fill-opacity="0.3"/>
<rect x="13.4238" y="82.9487" width="2.18382" height="173.781" transform="rotate(135 13.4238 82.9487)" fill="#129575"/>
<rect x="131.389" y="200.915" width="2.18382" height="173.781" transform="rotate(135 131.389 200.915)" fill="#129575"/>
<rect x="20.4453" y="-1.31348" width="2.18382" height="132.337" transform="rotate(45 20.4453 -1.31348)" fill="#129575"/>
<rect x="84.2031" y="12.1689" width="2.18382" height="173.781" transform="rotate(135 84.2031 12.1689)" fill="#129575"/>
<rect x="202.17" y="130.135" width="2.18382" height="173.781" transform="rotate(135 202.17 130.135)" fill="#129575"/>
<rect x="91.2246" y="69.4663" width="2.18382" height="132.337" transform="rotate(45 91.2246 69.4663)" fill="#129575"/>
<rect x="37.0156" y="59.3555" width="2.18382" height="173.781" transform="rotate(135 37.0156 59.3555)" fill="#129575"/>
<rect x="154.982" y="177.322" width="2.18382" height="173.781" transform="rotate(135 154.982 177.322)" fill="#129575"/>
<rect x="67.6328" y="45.873" width="2.18382" height="132.337" transform="rotate(45 67.6328 45.873)" fill="#129575"/>
<rect x="162.006" y="-48.4995" width="2.18382" height="132.337" transform="rotate(45 162.006 -48.4995)" fill="#129575"/>
<rect x="44.0391" y="22.2798" width="2.18382" height="132.337" transform="rotate(45 44.0391 22.2798)" fill="#129575"/>
<rect x="138.412" y="-72.0933" width="2.18382" height="132.337" transform="rotate(45 138.412 -72.0933)" fill="#129575"/>
<rect x="60.6094" y="35.7622" width="2.18382" height="173.781" transform="rotate(135 60.6094 35.7622)" fill="#129575"/>
<rect x="178.576" y="153.729" width="2.18382" height="173.781" transform="rotate(135 178.576 153.729)" fill="#129575"/>
<rect x="45.9766" y="40.564" width="6.95124" height="7.00972" transform="rotate(45 45.9766 40.564)" fill="#129575"/>
<rect x="22.3848" y="64.1572" width="6.95124" height="7.00972" transform="rotate(45 22.3848 64.1572)" fill="#129575"/>
<rect x="-1.20898" y="87.7505" width="6.95124" height="7.00972" transform="rotate(45 -1.20898 87.7505)" fill="#003046"/>
<rect x="93.1641" y="-6.62256" width="6.95124" height="7.00972" transform="rotate(45 93.1641 -6.62256)" fill="#003046"/>
<rect x="69.5703" y="16.9707" width="6.95124" height="7.00972" transform="rotate(45 69.5703 16.9707)" fill="#129575"/>
<rect x="69.5703" y="64.1572" width="6.95124" height="7.00972" transform="rotate(45 69.5703 64.1572)" fill="#129575"/>
<rect x="45.9766" y="87.7505" width="6.95124" height="7.00972" transform="rotate(45 45.9766 87.7505)" fill="#129575"/>
<rect x="93.1641" y="40.564" width="6.95124" height="7.00972" transform="rotate(45 93.1641 40.564)" fill="#129575"/>
<rect x="93.1641" y="87.7505" width="6.95124" height="7.00972" transform="rotate(45 93.1641 87.7505)" fill="#003046"/>
<rect x="-1.20898" y="-6.62256" width="6.95124" height="7.00972" transform="rotate(45 -1.20898 -6.62256)" fill="#003046"/>
<rect x="22.3828" y="16.9702" width="6.95124" height="7.00972" transform="rotate(45 22.3828 16.9702)" fill="#129575"/>
<rect x="-1.20898" y="40.564" width="6.95124" height="7.00972" transform="rotate(45 -1.20898 40.564)" fill="#129575"/>
<rect x="45.9766" y="-6.62256" width="6.95124" height="7.00972" transform="rotate(45 45.9766 -6.62256)" fill="#129575"/>
<path d="M57.6403 60.3426H45.8797H33.559V54.8046C29.7011 55.8417 21.898 55.1033 21.5496 43.8529C21.2011 32.6025 29.6181 30.6196 33.8702 31.0345C34.7206 28.0891 38.3131 22.1735 45.8797 22.074C53.4463 21.9744 56.4995 28.0062 57.0802 31.0345C58.4077 31.2419 61.4111 31.806 62.805 32.4034C70.5832 36.1369 69.8365 41.5505 68.9031 47.7731C68.1564 52.7511 61.0834 54.7838 57.6403 55.1779V60.3426Z" fill="white"/>
<path fill-rule="evenodd" clip-rule="evenodd" d="M31.6357 56.5867C24.8128 55.7359 19.5332 49.9156 19.5332 42.8623C19.5332 35.4687 25.3345 29.43 32.6334 29.0499C34.6805 23.9709 39.6552 20.3862 45.4671 20.3862C51.279 20.3862 56.2537 23.9709 58.3008 29.0499C65.5998 29.43 71.401 35.4687 71.401 42.8623C71.401 49.9156 66.1214 55.7359 59.2985 56.5867L59.2985 62.2281H31.6357L31.6357 56.5867ZM32.8133 32.503L35.016 32.3883L35.8406 30.3425C37.3784 26.527 41.1136 23.8441 45.4671 23.8441C49.8206 23.8441 53.5558 26.527 55.0936 30.3425L55.9182 32.3883L58.1209 32.503C63.5922 32.788 67.9432 37.3181 67.9432 42.8623C67.9432 48.1497 63.9843 52.5177 58.8706 53.1554L55.8407 53.5332V58.4226H35.0935V53.5332L32.0636 53.1554C26.9499 52.5177 22.9911 48.1497 22.9911 42.8623C22.9911 37.3181 27.342 32.788 32.8133 32.503Z" fill="white"/>
<path d="M31.6348 64.9116H59.3047V70.0984H31.6348V64.9116Z" fill="white"/>
</g>
</g>
<defs>
<clipPath id="clip0_17_8858">
<rect width="91" height="91" rx="21.3281" fill="white"/>
</clipPath>
<clipPath id="clip1_17_8858">
<rect width="91" height="91" rx="21.3281" fill="white"/>
</clipPath>
</defs>
</svg>
