<svg width="24" height="24" viewBox="0 0 24 24" fill="none" xmlns="http://www.w3.org/2000/svg">
<path d="M20.4702 6.20541L20.4703 6.20551C21.1415 6.67532 21.7063 7.38618 22.1026 8.14535C22.4989 8.90453 22.7602 9.77604 22.7602 10.5999V17.3799C22.7602 20.3442 20.3544 22.7499 17.3902 22.7499H6.61023C3.64391 22.7499 1.24023 20.332 1.24023 17.3699V10.4699C1.24023 9.6966 1.4784 8.86771 1.83737 8.13864C2.19651 7.40923 2.70854 6.71474 3.3188 6.23869C3.31885 6.23864 3.31891 6.2386 3.31896 6.23856L8.3288 2.32869L8.33086 2.32708L8.33087 2.32708C10.1006 0.955859 12.871 0.887072 14.7102 2.17541L20.4702 6.20541ZM20.4702 6.20541L14.7106 2.1757L20.4702 6.20541Z" fill="#DBEBE7" stroke="#129575" stroke-width="1.5"/>
</svg>
